<svg viewBox="0 0 20 20" fill="none" xmlns="http://www.w3.org/2000/svg">
<g clip-path="url(#clip0_1703_886)">
<path d="M9.04445 2.06732L4.6 6.51176C4.54866 6.56208 4.48786 6.60173 4.42111 6.62843C4.35437 6.65513 4.28299 6.66835 4.21111 6.66732H0.277778C0.204107 6.66732 0.133453 6.69658 0.0813592 6.74868C0.0292658 6.80077 0 6.87142 0 6.9451L0 13.0562C0 13.1299 0.0292658 13.2005 0.0813592 13.2526C0.133453 13.3047 0.204107 13.334 0.277778 13.334H4.21111C4.28564 13.3329 4.3596 13.3471 4.42841 13.3758C4.49721 13.4045 4.5594 13.447 4.61111 13.5006L9.05556 17.9451C9.13388 18.0219 9.23319 18.0738 9.34095 18.0942C9.44872 18.1146 9.56012 18.1027 9.66112 18.0599C9.76212 18.0171 9.84819 17.9454 9.9085 17.8538C9.96881 17.7622 10.0006 17.6548 10 17.5451V2.45621C10.0007 2.34517 9.96806 2.23648 9.90636 2.14416C9.84466 2.05184 9.75672 1.98013 9.65387 1.93828C9.55103 1.89642 9.438 1.88634 9.32937 1.90934C9.22074 1.93234 9.1215 1.98737 9.04445 2.06732ZM12.0889 0.333984V2.02287C13.8536 2.49136 15.4164 3.525 16.538 4.96572C17.6597 6.40643 18.2786 8.1749 18.3 10.0007C18.2786 11.8264 17.6597 13.5949 16.538 15.0356C15.4164 16.4763 13.8536 17.5099 12.0889 17.9784V19.6673C14.309 19.1933 16.3017 17.9779 17.7394 16.2211C19.1772 14.4643 19.9744 12.2706 20 10.0007C19.9744 7.73067 19.1772 5.53696 17.7394 3.78017C16.3017 2.02337 14.309 0.808043 12.0889 0.333984ZM16.0444 10.0007C16.0355 8.76689 15.6527 7.56484 14.9465 6.55314C14.2403 5.54145 13.2439 4.76769 12.0889 4.33398V6.17843C12.7721 6.55584 13.3416 7.10947 13.7382 7.78169C14.1349 8.45391 14.3441 9.22015 14.3441 10.0007C14.3441 10.7812 14.1349 11.5474 13.7382 12.2196C13.3416 12.8918 12.7721 13.4455 12.0889 13.8229V15.6673C13.2439 15.2336 14.2403 14.4598 14.9465 13.4482C15.6527 12.4365 16.0355 11.2344 16.0444 10.0007Z" fill="currentColor"/>
</g>
<defs>
<clipPath id="clip0_1703_886">
<rect width="20" height="20" fill="white"/>
</clipPath>
</defs>
</svg>
