<svg viewBox="0 0 18 18" fill="none" xmlns="http://www.w3.org/2000/svg">
<path d="M8.9367 12.1086H9.0634C9.87538 12.1086 10.6541 11.786 11.2283 11.2119C11.8024 10.6377 12.125 9.85899 12.125 9.047V3.0616C12.125 2.24961 11.8024 1.47088 11.2283 0.896722C10.6541 0.322561 9.87538 1.63328e-09 9.0634 1.63328e-09L8.9367 1.63328e-09C8.53463 -1.31308e-05 8.1365 0.0791678 7.76504 0.233022C7.39358 0.386876 7.05606 0.612389 6.77175 0.896686C6.48745 1.18098 6.26192 1.5185 6.10806 1.88995C5.95419 2.26141 5.875 2.65954 5.875 3.0616V9.047C5.875 9.44906 5.95419 9.84719 6.10806 10.2186C6.26192 10.5901 6.48745 10.9276 6.77175 11.2119C7.05606 11.4962 7.39358 11.7217 7.76504 11.8756C8.1365 12.0294 8.53463 12.1086 8.9367 12.1086ZM7.375 3.0616C7.3755 2.64757 7.5402 2.25065 7.83297 1.9579C8.12574 1.66515 8.52267 1.50048 8.9367 1.5H9.0634C9.47741 1.50048 9.87433 1.66515 10.1671 1.95791C10.4598 2.25066 10.6245 2.64758 10.625 3.0616V9.047C10.6245 9.46102 10.4599 9.85796 10.1671 10.1507C9.87436 10.4435 9.47742 10.6081 9.0634 10.6086H8.9367C8.52266 10.6081 8.12571 10.4435 7.83294 10.1507C7.54016 9.85797 7.37547 9.46103 7.375 9.047V3.0616ZM14.7105 8.7754C14.6126 8.76407 14.5135 8.77217 14.4188 8.79923C14.324 8.82629 14.2356 8.87179 14.1585 8.9331C14.0814 8.99442 14.0171 9.07035 13.9694 9.15654C13.9217 9.24274 13.8915 9.3375 13.8805 9.4354C13.7429 10.6333 13.1695 11.7388 12.2695 12.5413C11.3696 13.3438 10.2059 13.7872 9.0001 13.7872C7.79431 13.7872 6.63063 13.3438 5.73067 12.5413C4.8307 11.7388 4.25731 10.6333 4.1197 9.4354C4.09463 9.23893 3.99385 9.06 3.83882 8.93672C3.6838 8.81345 3.48677 8.75556 3.2897 8.7754C3.09213 8.79799 2.91162 8.89811 2.78785 9.05375C2.66409 9.2094 2.6072 9.40782 2.6297 9.6054C2.79152 11.0189 3.41957 12.3383 4.41469 13.3552C5.4098 14.3721 6.71528 15.0285 8.125 15.2209V17.125C8.125 17.3571 8.21718 17.5796 8.38128 17.7437C8.54537 17.9078 8.76793 18 9 18C9.23206 18 9.45462 17.9078 9.61871 17.7437C9.78281 17.5796 9.875 17.3571 9.875 17.125V15.2209C11.2847 15.0286 12.5903 14.3721 13.5854 13.3553C14.5806 12.3384 15.2087 11.0191 15.3706 9.6055C15.3931 9.40789 15.3362 9.20942 15.2124 9.05376C15.0887 8.89809 14.9081 8.79796 14.7105 8.7754Z" fill="currentColor"/>
</svg>
