<svg viewBox="0 0 18 18" fill="none" xmlns="http://www.w3.org/2000/svg">
<g clip-path="url(#clip0_1404_3463)">
<path d="M17.8539 16.8082L1.19827 0.143885C1.10524 0.0508765 0.979071 -0.00137329 0.84752 -0.00137329C0.715968 -0.00137329 0.589803 0.0508765 0.49677 0.143885L0.14677 0.493885C0.0538098 0.586863 0.00158691 0.712957 0.00158691 0.844435C0.00158691 0.975913 0.0538098 1.10201 0.14677 1.19499L5.87497 6.92349V9.04699C5.87497 9.44905 5.95416 9.84718 6.10803 10.2186C6.2619 10.5901 6.48742 10.9276 6.77173 11.2119C7.05603 11.4962 7.39355 11.7217 7.76502 11.8756C8.13648 12.0294 8.53461 12.1086 8.93667 12.1086H9.06337C9.61297 12.1074 10.1517 11.9556 10.6211 11.6696L11.8317 12.8796C11.1365 13.3738 10.3244 13.6781 9.47568 13.7624C8.62692 13.8467 7.77086 13.7081 6.99207 13.3603C6.21328 13.0124 5.53871 12.4675 5.03501 11.7791C4.53131 11.0908 4.21591 10.283 4.11997 9.43549C4.0949 9.23901 3.99413 9.06008 3.8391 8.93681C3.68407 8.81353 3.48704 8.75565 3.28997 8.77549C3.0924 8.79807 2.91189 8.89819 2.78813 9.05384C2.66436 9.20948 2.60747 9.40791 2.62997 9.60549C2.7918 11.019 3.41982 12.3383 4.41487 13.3551C5.40993 14.372 6.71532 15.0285 8.12497 15.2209V17.125C8.12497 17.357 8.21716 17.5796 8.38125 17.7437C8.54535 17.9078 8.76791 18 8.99997 18C9.23203 18 9.45459 17.9078 9.61869 17.7437C9.78278 17.5796 9.87497 17.357 9.87497 17.125V15.2209C10.9756 15.0669 12.016 14.625 12.8911 13.94L16.8073 17.8561C16.8533 17.9022 16.908 17.9388 16.9682 17.9638C17.0284 17.9887 17.0929 18.0016 17.1581 18.0016C17.2232 18.0016 17.2878 17.9887 17.348 17.9638C17.4082 17.9388 17.4628 17.9022 17.5089 17.8561L17.8543 17.5098C17.9003 17.4637 17.9369 17.409 17.9618 17.3488C17.9867 17.2886 17.9995 17.2241 17.9995 17.1589C17.9994 17.0937 17.9865 17.0292 17.9616 16.9691C17.9366 16.9089 17.9 16.8542 17.8539 16.8082ZM9.06387 10.6082H8.93667C8.52271 10.6077 8.12582 10.4431 7.83305 10.1505C7.54029 9.85778 7.37555 9.46095 7.37497 9.04699V8.42349L9.49067 10.5392C9.35227 10.5826 9.20838 10.6059 9.06337 10.6086L9.06387 10.6082ZM7.37497 3.06159C7.37547 2.64756 7.54017 2.25064 7.83294 1.95789C8.12571 1.66514 8.52264 1.50046 8.93667 1.49999H9.06337C9.47739 1.50046 9.87431 1.66514 10.1671 1.95789C10.4598 2.25065 10.6245 2.64757 10.625 3.06159V7.53329L12.125 9.03409V3.06159C12.125 2.2496 11.8024 1.47087 11.2282 0.896707C10.6541 0.322546 9.87536 -1.46334e-05 9.06337 -1.46334e-05H8.93667C8.17075 0.00145156 7.43338 0.290877 6.87096 0.810803C6.30853 1.33073 5.96218 2.04313 5.90067 2.80659L7.37497 4.28159V3.06159ZM15.3706 9.60549C15.3887 9.41015 15.3296 9.21549 15.2059 9.06324C15.0821 8.91099 14.9037 8.81327 14.7088 8.79103C14.5139 8.76879 14.318 8.82381 14.1632 8.94428C14.0084 9.06475 13.9069 9.24109 13.8806 9.43549C13.8338 9.80722 13.7443 10.1723 13.614 10.5236L14.768 11.6783C15.0851 11.0266 15.2888 10.3256 15.3706 9.60549Z" fill="currentColor"/>
</g>
<defs>
<clipPath id="clip0_1404_3463">
<rect width="18" height="18" fill="currentColor"/>
</clipPath>
</defs>
</svg>
