<svg viewBox="0 0 18 18" fill="none" xmlns="http://www.w3.org/2000/svg">
<g clip-path="url(#clip0_1464_3458)">
<path d="M16.9853 7.1756L15.377 6.5088C15.329 6.48879 15.2908 6.45054 15.2709 6.40244C15.251 6.35433 15.251 6.30031 15.2709 6.2522L15.9367 4.644C16.0617 4.34382 16.0946 4.01326 16.0313 3.69433C15.968 3.3754 15.8113 3.08248 15.5811 2.8528L15.1477 2.42C14.9179 2.18937 14.6247 2.03231 14.3054 1.96881C13.9861 1.90531 13.6551 1.93824 13.3546 2.0634L11.7463 2.73C11.7229 2.74021 11.6976 2.74547 11.6721 2.74547C11.6465 2.74547 11.6212 2.74021 11.5978 2.73C11.5738 2.72031 11.552 2.70581 11.5337 2.6874C11.5155 2.66898 11.5012 2.64703 11.4917 2.6229L10.825 1.0153C10.7013 0.714461 10.4908 0.457254 10.2204 0.276443C9.95 0.0956312 9.63189 -0.00060125 9.3066 2.82659e-06H8.6934C8.36813 -0.000594715 8.05004 0.0956417 7.77965 0.276454C7.50926 0.457266 7.29881 0.714469 7.1751 1.0153L6.5094 2.6225C6.49996 2.64637 6.48578 2.66808 6.46771 2.68631C6.44965 2.70455 6.42808 2.71893 6.4043 2.7286C6.38043 2.73901 6.3547 2.74446 6.32866 2.74463C6.30262 2.74481 6.27681 2.73969 6.2528 2.7296L4.6445 2.0629C4.34424 1.93784 4.01354 1.90502 3.69456 1.96862C3.37557 2.03222 3.08275 2.18935 2.8534 2.42L2.421 2.8523C2.19004 3.08178 2.03268 3.37486 1.96899 3.69415C1.90529 4.01344 1.93816 4.34447 2.0634 4.645L2.73 6.2522C2.74418 6.30062 2.74128 6.35243 2.7218 6.39896C2.70232 6.4455 2.66744 6.48392 2.623 6.5078L1.0157 7.1745C0.715117 7.29863 0.458137 7.50919 0.277321 7.77949C0.096505 8.0498 -1.0036e-05 8.36769 3.28077e-06 8.6929V9.3061C-0.000647616 9.63139 0.0955674 9.9495 0.276386 10.2199C0.457205 10.4903 0.714438 10.7007 1.0153 10.8244L2.6236 11.4912C2.64737 11.501 2.66897 11.5154 2.68716 11.5335C2.70536 11.5517 2.71979 11.5733 2.72964 11.597C2.73949 11.6208 2.74455 11.6462 2.74455 11.6719C2.74454 11.6976 2.73946 11.7231 2.7296 11.7468L2.0634 13.356C1.9383 13.6562 1.90531 13.9868 1.96863 14.3057C2.03195 14.6247 2.18872 14.9176 2.419 15.1472L2.8524 15.5805C3.08193 15.8112 3.37502 15.9683 3.69422 16.0316C4.01343 16.0949 4.34428 16.0617 4.6445 15.9361L6.2538 15.27C6.27723 15.2598 6.30251 15.2545 6.32805 15.2545C6.3536 15.2545 6.37888 15.2598 6.4023 15.27C6.42622 15.2796 6.44794 15.294 6.46615 15.3122C6.48437 15.3304 6.49871 15.3522 6.5083 15.3761L7.1751 16.9843C7.29875 17.2852 7.50917 17.5425 7.77956 17.7234C8.04996 17.9043 8.36808 18.0006 8.6934 18H9.3066C9.63189 18.0006 9.95 17.9044 10.2204 17.7236C10.4908 17.5428 10.7013 17.2855 10.825 16.9847L11.4917 15.3755C11.502 15.3515 11.5169 15.3297 11.5356 15.3115C11.5543 15.2933 11.5765 15.279 11.6008 15.2694C11.6241 15.2599 11.649 15.2551 11.6742 15.2553C11.6993 15.2555 11.7242 15.2606 11.7473 15.2704L13.3546 15.9361C13.6551 16.061 13.9859 16.0938 14.3051 16.0305C14.6243 15.9672 14.9176 15.8106 15.1477 15.5805L15.5821 15.1461C15.8116 14.9163 15.9678 14.6235 16.031 14.3049C16.0941 13.9863 16.0613 13.6561 15.9367 13.3561L15.27 11.7468C15.2507 11.6988 15.251 11.6451 15.2708 11.5973C15.2906 11.5495 15.3285 11.5114 15.3761 11.4912L16.9823 10.8255C17.284 10.7025 17.5421 10.4921 17.7234 10.2214C17.9048 9.95066 18.0011 9.63194 18 9.3061V8.6929C18.0005 8.36786 17.9043 8.05002 17.7236 7.77982C17.5429 7.50963 17.2859 7.2993 16.9853 7.1756ZM16.5509 9.3061C16.551 9.34487 16.5395 9.38278 16.5179 9.41499C16.4963 9.44719 16.4656 9.47223 16.4297 9.4869L14.8214 10.1537C14.4193 10.3213 14.1 10.6414 13.9334 11.044C13.7667 11.4465 13.7664 11.8986 13.9324 12.3014L14.5991 13.9096C14.6138 13.9454 14.6176 13.9847 14.6101 14.0226C14.6025 14.0605 14.584 14.0954 14.5567 14.1228L14.1233 14.5562C14.0963 14.5841 14.0614 14.6031 14.0234 14.6107C13.9853 14.6182 13.9458 14.614 13.9102 14.5986L12.3039 13.9339C12.1045 13.8508 11.8906 13.8078 11.6745 13.8075C11.4584 13.8071 11.2444 13.8494 11.0447 13.9319C10.845 14.0144 10.6635 14.1355 10.5107 14.2882C10.3578 14.4409 10.2366 14.6223 10.1539 14.8219L9.4872 16.4311C9.47225 16.4667 9.44709 16.4971 9.41491 16.5185C9.38272 16.5398 9.34493 16.5512 9.3063 16.5511H8.6934C8.65479 16.5512 8.61701 16.5398 8.58484 16.5185C8.55266 16.4971 8.52753 16.4667 8.5126 16.4311L7.8459 14.8219C7.76374 14.6222 7.64294 14.4408 7.49044 14.288C7.33795 14.1351 7.15676 14.0139 6.95729 13.9313C6.75781 13.8487 6.54399 13.8063 6.32809 13.8066C6.11219 13.8069 5.89847 13.8498 5.6992 13.9329L4.0909 14.5976C4.05513 14.6128 4.01564 14.617 3.97749 14.6096C3.93933 14.6022 3.90424 14.5836 3.8767 14.5562L3.4444 14.1238C3.41686 14.0964 3.39804 14.0614 3.3903 14.0233C3.38256 13.9852 3.38625 13.9456 3.4009 13.9096L4.0667 12.3014C4.23318 11.8987 4.23307 11.4463 4.0664 11.0437C3.89973 10.641 3.58012 10.321 3.1777 10.1537L1.5694 9.4869C1.53359 9.47212 1.50297 9.44705 1.4814 9.41487C1.45983 9.38269 1.44828 9.34484 1.4482 9.3061V8.6949C1.44829 8.65591 1.45982 8.61781 1.48136 8.58531C1.50291 8.55281 1.53352 8.52736 1.5694 8.5121L3.1777 7.8463C3.58052 7.67952 3.90059 7.35955 4.0675 6.95678C4.23441 6.554 4.23448 6.10143 4.0677 5.6986L3.4019 4.09C3.38693 4.05411 3.38297 4.01458 3.39054 3.97643C3.39811 3.93829 3.41686 3.90326 3.4444 3.8758L3.8777 3.4424C3.90493 3.41513 3.93963 3.39654 3.97742 3.38899C4.01521 3.38145 4.05439 3.38528 4.09 3.4L5.6993 4.0667C6.10213 4.23348 6.55471 4.23341 6.95748 4.0665C7.36025 3.89959 7.68022 3.57952 7.847 3.1767L8.5127 1.5685C8.52763 1.53289 8.55276 1.50249 8.58494 1.48113C8.61711 1.45978 8.65489 1.44842 8.6935 1.4485H9.3067C9.34533 1.44843 9.38312 1.45978 9.41531 1.48114C9.44749 1.50249 9.47265 1.53289 9.4876 1.5685L10.1533 3.1767C10.2357 3.37627 10.3567 3.55762 10.5093 3.71039C10.6619 3.86316 10.8431 3.98434 11.0426 4.067C11.2421 4.14966 11.4559 4.19218 11.6718 4.19213C11.8878 4.19208 12.1016 4.14946 12.301 4.0667L13.9092 3.4C13.9453 3.38587 13.9847 3.38245 14.0226 3.39015C14.0606 3.39785 14.0956 3.41634 14.1233 3.4434L14.5567 3.8768C14.584 3.90422 14.6025 3.93908 14.6101 3.977C14.6176 4.01493 14.6138 4.05424 14.5991 4.09L13.9334 5.6972C13.7668 6.10007 13.7668 6.55258 13.9335 6.95541C14.1002 7.35825 14.4199 7.67851 14.8224 7.8459L16.4307 8.5127C16.4662 8.52753 16.4966 8.55253 16.5179 8.58456C16.5393 8.61659 16.5507 8.65421 16.5507 8.6927L16.5509 9.3061ZM8.9988 5.8961C8.33313 5.89624 7.68514 6.11044 7.15052 6.50707C6.61591 6.9037 6.22302 7.46174 6.02986 8.09878C5.8367 8.73581 5.85351 9.41808 6.07782 10.0448C6.30213 10.6716 6.72204 11.2096 7.27554 11.5794C7.82904 11.9492 8.4868 12.1312 9.15167 12.0986C9.81655 12.0659 10.4533 11.8203 10.9679 11.398C11.4825 10.9758 11.8477 10.3992 12.0095 9.75349C12.1713 9.10778 12.1212 8.42715 11.8665 7.8121C11.6327 7.24416 11.2351 6.75868 10.7244 6.41754C10.2137 6.0764 9.61298 5.89505 8.9988 5.8966V5.8961ZM9.6332 10.5278C9.33083 10.6531 8.99808 10.686 8.67703 10.6222C8.35598 10.5584 8.06107 10.4008 7.82958 10.1694C7.5981 9.93801 7.44044 9.64314 7.37655 9.32211C7.31267 9.00108 7.34543 8.66832 7.47068 8.36591C7.59593 8.0635 7.80805 7.80503 8.08022 7.62319C8.35239 7.44135 8.67237 7.3443 8.99969 7.34434C9.32701 7.34437 9.64697 7.44147 9.9191 7.62336C10.1912 7.80526 10.4033 8.06377 10.5285 8.3662C10.6132 8.56677 10.6572 8.78217 10.658 8.99989C10.6587 9.2176 10.6162 9.4333 10.5329 9.63446C10.4496 9.83562 10.3272 10.0182 10.1728 10.1717C10.0183 10.3251 9.8349 10.4463 9.6332 10.5283V10.5278Z" fill="currentcolor"/>
</g>
<defs>
<clipPath id="clip0_1464_3458">
<rect width="18" height="18" fill="white"/>
</clipPath>
</defs>
</svg>
