<svg viewBox="0 0 18 18" fill="none" xmlns="http://www.w3.org/2000/svg">
<path d="M17.623 3.50289C17.5155 3.43898 17.3934 3.4038 17.2684 3.40074C17.1434 3.39767 17.0197 3.42683 16.9092 3.48539L14.9746 4.51749V3.49999C14.9742 3.04273 14.7923 2.60432 14.469 2.28098C14.1457 1.95765 13.7073 1.77581 13.25 1.77539H1.74999C1.29273 1.77581 0.854316 1.95765 0.530982 2.28098C0.207649 2.60432 0.0258143 3.04273 0.0253906 3.49999V14.5C0.0258143 14.9573 0.207649 15.3957 0.530982 15.719C0.854316 16.0423 1.29273 16.2242 1.74999 16.2246H13.25C13.7073 16.2242 14.1457 16.0423 14.469 15.719C14.7923 15.3957 14.9742 14.9573 14.9746 14.5V13.4825L16.9092 14.5146C17.0196 14.5737 17.1435 14.6031 17.2687 14.6C17.3939 14.5969 17.5161 14.5613 17.6235 14.4968C17.7308 14.4324 17.8196 14.3411 17.8811 14.2321C17.9427 14.123 17.9749 13.9998 17.9746 13.8746V4.12499C17.9747 3.99976 17.9423 3.87665 17.8807 3.76763C17.8191 3.65861 17.7303 3.5674 17.623 3.50289ZM13.5254 14.5C13.5252 14.573 13.4961 14.6429 13.4445 14.6945C13.3929 14.7461 13.323 14.7752 13.25 14.7754H1.74999C1.67702 14.7752 1.60711 14.7461 1.55552 14.6945C1.50392 14.6429 1.47483 14.573 1.47459 14.5V3.49999C1.47483 3.42702 1.50392 3.35711 1.55552 3.30552C1.60711 3.25392 1.67702 3.22483 1.74999 3.22459H13.25C13.323 3.22483 13.3929 3.25392 13.4445 3.30552C13.4961 3.35711 13.5252 3.42702 13.5254 3.49999V14.5ZM16.5254 12.666L14.9746 11.84V6.15999L16.5254 5.33379V12.666Z" fill="currentColor"/>
</svg>
