<svg viewBox="0 0 18 18" fill="none" xmlns="http://www.w3.org/2000/svg">
<g clip-path="url(#clip0_1404_3458)">
<path d="M17.8537 16.8085L1.19802 0.144101C1.15197 0.098039 1.09729 0.0614997 1.03712 0.0365703C0.976946 0.0116409 0.91245 -0.00119019 0.847317 -0.00119019C0.782184 -0.00119019 0.717688 0.0116409 0.657515 0.0365703C0.597341 0.0614997 0.542667 0.098039 0.496617 0.144101L0.146617 0.494101C0.100561 0.540135 0.064026 0.594791 0.0390993 0.654948C0.0141726 0.715105 0.00134277 0.779584 0.00134277 0.844701C0.00134277 0.909818 0.0141726 0.974297 0.0390993 1.03445C0.064026 1.09461 0.100561 1.14927 0.146617 1.1953L0.938617 1.9874C0.663635 2.13317 0.433396 2.35088 0.272475 2.61728C0.111554 2.88368 0.0259902 3.18877 0.0249171 3.5V14.5C0.0254204 14.9574 0.207418 15.3959 0.53095 15.7193C0.854483 16.0426 1.29311 16.2244 1.75052 16.2246H13.25C13.5001 16.2237 13.747 16.1681 13.9733 16.0617C14.1996 15.9553 14.3998 15.8007 14.56 15.6086L16.807 17.856C16.8531 17.9021 16.9078 17.9386 16.968 17.9636C17.0283 17.9885 17.0928 18.0013 17.158 18.0012C17.2231 18.0012 17.2877 17.9883 17.3479 17.9633C17.408 17.9383 17.4627 17.9017 17.5087 17.8555L17.854 17.5091C17.9468 17.4161 17.9988 17.2901 17.9988 17.1587C17.9987 17.0274 17.9465 16.9014 17.8537 16.8085ZM13.25 14.7754H1.75052C1.6774 14.7753 1.60728 14.7463 1.55548 14.6947C1.50369 14.6431 1.47443 14.5731 1.47412 14.5V3.5C1.47443 3.42689 1.50369 3.35687 1.55548 3.30526C1.60728 3.25365 1.6774 3.22465 1.75052 3.2246H2.17562L13.5032 14.5522C13.4932 14.6129 13.4626 14.6683 13.4164 14.709C13.3703 14.7497 13.3115 14.7731 13.25 14.7754ZM13.25 3.2246C13.323 3.22484 13.3929 3.25393 13.4445 3.30553C13.4961 3.35712 13.5252 3.42703 13.5254 3.5V10.1914C13.5254 10.3836 13.6018 10.5679 13.7376 10.7038C13.8735 10.8397 14.0578 10.916 14.25 10.916C14.4422 10.916 14.6265 10.8397 14.7624 10.7038C14.8983 10.5679 14.9746 10.3836 14.9746 10.1914V6.1606L16.5254 5.334V13.1748C16.5254 13.367 16.6018 13.5513 16.7376 13.6872C16.8735 13.8231 17.0578 13.8994 17.25 13.8994C17.4422 13.8994 17.6265 13.8231 17.7624 13.6872C17.8983 13.5513 17.9746 13.367 17.9746 13.1748V4.125C17.9749 3.99977 17.9427 3.8766 17.8812 3.76753C17.8196 3.65847 17.7308 3.56723 17.6235 3.50274C17.5161 3.43825 17.3939 3.40272 17.2687 3.39961C17.1435 3.3965 17.0196 3.42592 16.9092 3.485L14.9741 4.5175V3.5C14.9737 3.04283 14.7919 2.60449 14.4687 2.28117C14.1455 1.95785 13.7072 1.77596 13.25 1.7754H4.88692L6.33522 3.2246H13.25Z" fill="currentColor"/>
</g>
<defs>
<clipPath id="clip0_1404_3458">
<rect width="18" height="18" fill="currentColor"/>
</clipPath>
</defs>
</svg>
